<?xml version="1.0" encoding="utf-8"?>
<!-- Generator: Adobe Illustrator 21.0.0, SVG Export Plug-In . SVG Version: 6.00 Build 0)  -->
<svg version="1.1" id="Layer_1" xmlns="http://www.w3.org/2000/svg" xmlns:xlink="http://www.w3.org/1999/xlink" x="0px" y="0px"
	 viewBox="0 0 309.2 70.3" style="enable-background:new 0 0 309.2 70.3;" xml:space="preserve">
<style type="text/css">
	.st0{clip-path:url(#SVGID_2_);fill:url(#SVGID_3_);}
	.st1{clip-path:url(#SVGID_5_);fill:url(#SVGID_6_);}
	.st2{fill:#FFFFFF;}
	.st3{fill:#1D3868;}
</style>
<g>
	<g>
		<defs>
			<path id="SVGID_1_" d="M18.5,18.4c-7.3,7.3-8.7,18.3-4.2,27.1l-5,14.9l14.9-5c8.7,4.6,19.8,3.2,27.1-4.2c9.1-9.1,9.1-23.8,0-32.8
				c-4.5-4.5-10.5-6.8-16.4-6.8C28.9,11.6,23,13.9,18.5,18.4"/>
		</defs>
		<clipPath id="SVGID_2_">
			<use xlink:href="#SVGID_1_"  style="overflow:visible;"/>
		</clipPath>
		
			<linearGradient id="SVGID_3_" gradientUnits="userSpaceOnUse" x1="-269.1754" y1="340.2564" x2="-268.1754" y2="340.2564" gradientTransform="matrix(0 -48.777 -48.777 0 16631.5195 -13069.1748)">
			<stop  offset="0" style="stop-color:#73AB42"/>
			<stop  offset="0.5" style="stop-color:#7BB542"/>
			<stop  offset="1" style="stop-color:#8CBF3F"/>
		</linearGradient>
		<rect x="9.3" y="11.6" class="st0" width="51.1" height="48.8"/>
	</g>
	<g>
		<defs>
			<path id="SVGID_4_" d="M28.5,0C21.6,1.2,14.9,4.5,9.6,9.8c-5,5-8.2,11.1-9.6,17.5v15c0.9,4,2.4,7.9,4.7,11.4l2.7-8
				c-1.4-3.5-2.1-7.2-2.1-11c0-7.9,3.1-15.3,8.6-20.9C25.4,2.5,44.1,2.5,55.6,14c5.6,5.6,8.6,13,8.6,20.9s-3.1,15.3-8.6,20.9
				c-8.5,8.5-21,10.9-32,6.5l-8,2.7c13.7,8.7,32.1,7.1,44-4.9c13.8-13.8,13.8-36.3,0-50.1c-5.3-5.4-12-8.6-18.9-9.8H28.5z"/>
		</defs>
		<clipPath id="SVGID_5_">
			<use xlink:href="#SVGID_4_"  style="overflow:visible;"/>
		</clipPath>
		
			<linearGradient id="SVGID_6_" gradientUnits="userSpaceOnUse" x1="-268.0553" y1="339.0565" x2="-267.0553" y2="339.0565" gradientTransform="matrix(0 -70.8677 -70.8677 0 24064.9121 -18926.1289)">
			<stop  offset="0" style="stop-color:#73AB42"/>
			<stop  offset="0.5" style="stop-color:#7BB542"/>
			<stop  offset="1" style="stop-color:#8CBF3F"/>
		</linearGradient>
		<rect y="0" class="st1" width="73.5" height="73.5"/>
	</g>
	<path class="st2" d="M48.4,31.8C48.4,31.8,48.4,31.8,48.4,31.8c1.1-1.1,1-3-0.2-4.2c-1.2-1.2-3.1-1.4-4.1-0.3l0,0l-11,11l-5.8-5.8
		l0,0c-1.1-1.1-2.9-0.9-4.1,0.3c-1.2,1.2-1.4,3.1-0.3,4.1c0,0,0,0,0.1,0l8,8v0c0,0,0,0,0,0c1.2,1.2,3.2,1.2,4.4,0c0,0,0,0,0,0h0
		L48.4,31.8z"/>
	<g>
		<path class="st3" d="M264.1,42c-0.8,2.9-2.3,4.3-4.6,4.3c-2.4,0-4-1.4-4.7-4.3c-0.5-1.7-0.6-4.1-0.6-7.1c0-3.2,0.2-5.5,0.6-7.2
			c0.8-2.9,2.3-4.3,4.7-4.3c2.3,0,3.8,1.4,4.6,4.3c0.5,1.7,0.6,4,0.6,7.2C264.8,38,264.6,40.3,264.1,42 M271.9,22.4
			c-3.5-3.3-7.6-5.2-12.3-5.2c-4.9,0-9,1.8-12.5,5.2c-3.5,3.5-5.2,7.6-5.2,12.5c0,4.9,1.7,9,5.2,12.5c3.3,3.3,7.6,5.2,12.5,5.2
			c4.7,0,9-1.8,12.3-5.2c3.5-3.5,5.2-7.6,5.2-12.5C277.1,30,275.4,25.9,271.9,22.4"/>
		<path class="st3" d="M145.3,35.1c-0.8,1.2-1.8,2-2.9,2.1c-0.5,0.2-0.8,0.2-1.2,0.2h-3v-14h3c0.5,0,0.8,0,1.2,0.2
			c1.2,0.2,2.1,0.9,2.9,2.1c0.8,1.4,1.2,2.9,1.2,4.7C146.5,32.1,146.1,33.8,145.3,35.1 M153.1,20.4c-3.2-1.8-6.7-2.9-10.7-3.2h-1.2
			h-15.4v35.3h12.3v-8.8h3h1.2c4-0.3,7.5-1.2,10.7-3.2c3.8-2.6,5.8-5.9,5.8-10C158.8,26.3,156.9,23,153.1,20.4"/>
		<path class="st3" d="M109.9,42c-0.8,2.9-2.3,4.3-4.6,4.3c-2.3,0-4-1.4-4.7-4.3c-0.3-1.7-0.6-4.1-0.6-7.1c0-3.2,0.3-5.5,0.6-7.2
			c0.8-2.9,2.4-4.3,4.7-4.3c2.3,0,3.8,1.4,4.6,4.3c0.5,1.7,0.8,4,0.8,7.2C110.6,38,110.3,40.3,109.9,42 M105.3,17.2
			c-4.9,0-9,1.8-12.5,5.2c-3.3,3.5-5.2,7.6-5.2,12.5c0,4.9,1.8,9,5.2,12.5c3.5,3.3,7.6,5.2,12.5,5.2c4.9,0,9-1.8,12.3-5.2
			c3.5-3.5,5.2-7.6,5.2-12.5c0-4.9-1.7-9-5.2-12.5C114.3,19,110,17.2,105.3,17.2"/>
		<path class="st3" d="M201,34.8l-12.3-15.7c-1.1-1.2-2.7-2-4.9-2c-1.7,0-3.2,0.6-4.6,1.8c-1.2,1.2-2,2.6-2,4.3v29.2h7.2V34.8
			l12.3,15.7c1.1,1.2,2.6,2,4.7,2c1.8,0,3.3-0.6,4.6-1.8c1.4-1.2,2.1-2.6,2.1-4.3V17.2H201V34.8z"/>
		<rect x="161.9" y="28.3" class="st3" width="11" height="24.2"/>
		<path class="st3" d="M214.8,18.3c-1.5,0.9-2.4,2-2.4,3.3v26.5c0,1.4,0.9,2.4,2.4,3.3c1.2,0.6,2.7,1.1,4.3,1.1h19.8v-6.2h-13.7
			c-1.1,0-1.7-0.5-1.7-1.4v-7h15.4v-6.1h-15.4v-7.1c0-0.8,0.6-1.2,1.7-1.2h13.7v-6.2h-19.8C217.6,17.2,216.1,17.6,214.8,18.3"/>
		<rect x="161.9" y="17.2" class="st3" width="11" height="7.1"/>
		<path class="st3" d="M299.2,42.6c-0.7,1-1.5,1.6-2.5,2.2c-0.8,0.4-1.5,0.7-2.3,0.8h-0.8c-1,0-1.9-0.3-2.9-0.8
			c-0.8-0.5-1.5-1.2-1.9-2.2c-0.4-0.8-0.5-1.9-0.4-3c0.3-1.8,1-3.3,2.2-4.4c1.2-1.1,2.5-1.6,3.8-1.8h0.7c1.1,0,2.1,0.3,2.9,0.7
			c1,0.5,1.5,1.4,1.9,2.3c0.4,1,0.6,1.9,0.6,3C300.3,40.5,299.9,41.5,299.2,42.6 M295.5,31.5h-1.1c-0.8,0.1-1.6,0.4-2.3,0.8
			c-1.1,0.5-2.1,1.2-3,2.3l0.4-2.7h-1.9L285,52.5h1.9l1.1-8.2c0.7,1,1.5,1.8,2.5,2.3c1,0.4,1.9,0.7,3.2,0.7h0.8
			c1.8-0.1,3.4-1,4.9-2.3c1.8-1.5,2.7-3.4,3-5.6c0.3-2.2-0.3-4.1-1.6-5.6C299.4,32.3,297.7,31.5,295.5,31.5"/>
		<polygon class="st3" points="307.3,26 304.9,46.9 306.8,46.9 309.2,26 		"/>
		<path class="st3" d="M282.7,45.2c0,1.2-1,2.2-2.2,2.2c-1.2,0-2.2-1-2.2-2.2c0-1.2,1-2.2,2.2-2.2C281.7,42.9,282.7,43.9,282.7,45.2
			"/>
	</g>
</g>
</svg>
