<svg xmlns="http://www.w3.org/2000/svg" viewBox="0 0 6238.15 856.3"><defs><style>.cls-1{fill:#ff5f00;}.cls-2{fill:#1d1d1b;}</style></defs><g id="Warstwa_2" data-name="Warstwa 2"><g id="Warstwa_1-2" data-name="Warstwa 1"><path class="cls-1" d="M73.54,391.38c0-17.79-9.49-26.08-26.11-26.08H0V237.2H138.76c53.38,0,79.46,24.91,79.46,67.62V322.6a167.71,167.71,0,0,1-2.36,26.08h2.36c26.11-51,91.33-125.7,213.49-125.7,134,0,211.1,70,211.1,230.08v236c0,16.61,9.49,26.11,26.11,26.11h47.43V842.07H572.83c-56.92,0-80.63-23.71-80.63-80.64V483.9c0-73.54-19-123.36-94.89-123.36-80.64,0-141.12,51-162.47,123.36C226.52,508.81,223,536.09,223,564.54V842.07H73.54Z"/><path class="cls-1" d="M1136.28,462.55h19v-4.76c0-86.57-34.4-118.6-111.5-118.6-27.28,0-80.64,7.12-80.64,40.33v32h-140V347.51C823.16,234.83,982.1,223,1045,223c201.63,0,260.92,105.55,260.92,240.74V689.07c0,16.61,9.49,26.11,26.11,26.11h47.43V842.07H1244.19c-55.72,0-77.08-30.84-77.08-66.41,0-15.42,1.18-26.1,1.18-26.1h-2.37S1119.66,856.3,983.27,856.3c-107.91,0-206.36-67.59-206.36-188.58C776.91,478,1037.82,462.55,1136.28,462.55ZM1020,738.89c80.66,0,137.59-85.39,137.59-158.93V565.73h-26.08c-78.3,0-202.83,10.66-202.83,94.89C928.72,700.93,958.39,738.89,1020,738.89Z"/><path class="cls-1" d="M1500.45,391.38c0-17.79-9.49-26.08-26.1-26.08h-47.44V237.2H1564.5c53.36,0,80.64,22.55,80.64,73.54v35.57a276.22,276.22,0,0,1-2.37,38h2.37c27.27-86.59,99.62-155.37,192.14-155.37a193.27,193.27,0,0,1,27.27,2.37V379.52a267.69,267.69,0,0,0-36.76-2.37c-64,0-137.59,36.78-164.86,126.9a366.16,366.16,0,0,0-13,98.45V842.07H1500.45Z"/><path class="cls-1" d="M1922.72,761.43,2201.43,421c27.28-34.39,51-55.73,51-55.73v-2.37s-17.78,2.37-55.75,2.37H2087.56c-16.59,0-26.08,9.49-26.08,26.08v34.4H1925.09V317.84c0-55.73,23.72-80.64,80.64-80.64H2449.3V319L2170.59,659.42a683.93,683.93,0,0,1-51,55.76v2.36s17.78-3.56,56.92-3.56h132.83c16.61,0,26.1-8.3,26.1-26.08V654.69h136.39V761.43c0,56.93-23.71,80.64-79.47,80.64H1922.72Z"/><path class="cls-1" d="M2830.07,223c173.15,0,268,126.9,268,287,0,17.79-3.56,55.75-3.56,55.75H2677.06c11.88,106.74,90.16,162.5,181.48,162.5,97.25,0,169.6-67.61,169.6-67.61L3091,765s-92.5,91.32-243.14,91.32c-200.44,0-325-144.69-325-316.67C2522.88,353.44,2648.61,223,2830.07,223Zm113.86,238.38c-2.39-72.35-52.19-122.17-113.86-122.17-77.1,0-131.66,46.26-148.25,122.17Z"/><path class="cls-1" d="M3458.7,223c131.66,0,174.35,73.51,174.35,73.51h2.37s-1.17-15.39-1.17-35.57V154.17c0-17.78-9.5-26.08-26.1-26.08h-47.44V0h143.52c55.72,0,80.63,24.91,80.63,80.66V689.07c0,16.61,9.49,26.11,26.09,26.11h46.25V842.07H3718.45c-54.55,0-74.73-26.07-74.73-61.67V757.88h-2.37s-49.8,98.42-188.58,98.42c-163.66,0-269.21-129.26-269.21-316.67C3183.56,347.51,3298.59,223,3458.7,223Zm179.09,315.47c0-93.69-48.63-186.2-149.42-186.2-83,0-151.81,67.6-151.81,187.38,0,115.06,60.48,189.77,149.42,189.77C3564.27,729.4,3637.79,672.47,3637.79,538.45Z"/><path class="cls-1" d="M3915.4,761.43,4194.13,421c27.27-34.39,51-55.73,51-55.73v-2.37s-17.78,2.37-55.75,2.37H4080.26c-16.59,0-26.09,9.49-26.09,26.08v34.4H3917.79V317.84c0-55.73,23.71-80.64,80.63-80.64H4442V319L4163.29,659.42a682.83,682.83,0,0,1-51,55.76v2.36s17.79-3.56,56.93-3.56H4302c16.62,0,26.11-8.3,26.11-26.08V654.69h136.39V761.43c0,56.93-23.74,80.64-79.46,80.64H3915.4Z"/><path class="cls-1" d="M4592.66,391.38c0-17.79-9.49-26.08-26.09-26.08h-47.45V237.2h143.51c55.75,0,79.47,24.91,79.47,80.64V689.07c0,16.61,9.49,26.11,26.08,26.11h47.46V842.07H4672.12c-55.75,0-79.46-23.71-79.46-80.64ZM4599.78,0h130.46V138.75H4599.78Z"/><path class="cls-1" d="M5242.64,462.55h19v-4.76c0-86.57-34.38-118.6-111.48-118.6-27.27,0-80.63,7.12-80.63,40.33v32h-140V347.51c0-112.68,158.93-124.53,221.79-124.53,201.61,0,260.92,105.55,260.92,240.74V689.07c0,16.61,9.49,26.11,26.08,26.11h47.45V842.07H5350.56c-55.73,0-77.08-30.84-77.08-66.41,0-15.42,1.18-26.1,1.18-26.1h-2.37S5226,856.3,5089.64,856.3c-107.92,0-206.37-67.59-206.37-188.58C4883.27,478,5144.19,462.55,5242.64,462.55ZM5126.4,738.89C5207,738.89,5264,653.5,5264,580V565.73h-26.11c-78.27,0-202.8,10.66-202.8,94.89C5035.08,700.93,5064.73,738.89,5126.4,738.89Z"/><path class="cls-2" d="M5561.56,777.19h62.88v64.88h-62.88Z"/><g id="CURVES"><path class="cls-2" d="M5705.48,539.47h-32.85V483.38h164.26c67.21,0,114.21,47,114.21,116.74s-47,118.26-114.21,118.26h-65.2V842.21h-66.21Zm119.27,122.32c37.4,0,58.63-24.27,58.63-61.67,0-36.89-21.23-60.65-57.61-60.65h-54.08V661.79Z"/><path class="cls-2" d="M6011.23,550.59c0-7.07-4-11.12-11.12-11.12h-21.73V483.38h64.69c24.26,0,34.36,10.62,34.36,34.36V775c0,7.08,4,11.12,11.12,11.12h78.34c7.07,0,11.12-4,11.12-11.12V753.26h60.14v54.58c0,24.26-10.11,34.37-34.36,34.37H6045.6c-24.26,0-34.37-10.11-34.37-34.37Z"/></g></g></g></svg>