<svg xmlns="http://www.w3.org/2000/svg" viewBox="0 0 536.14 123.16"><defs><style>.cls-1{fill:#e30613;}.cls-2{isolation:isolate;}</style></defs><g id="Warstwa_2" data-name="Warstwa 2"><g id="logo"><g id="rotopino.pl"><g id="pino"><path d="M223.54,123.16c7.28-39.28,14.87-84.17,16.22-91.57a80.56,80.56,0,0,0,8.91.45c5.26,0,11.87-.48,11.87-.48l-1.4,9a24.67,24.67,0,0,1,19.63-9.75c14.09,0,21.34,11.21,21.34,25,0,22.41-14.49,42.71-37.43,42.71-4.47,0-9.4-1.38-11.51-2.83L246,123.16Zm31.79-48.7c-.27,4.22,2.62,7.47,6.43,7.2,8.41-.61,14.76-13.17,14.76-24.11,0-4.35-2-8.56-6.72-8.56S261,53,258.52,59.47A51.81,51.81,0,0,0,255.33,74.46Z"/><path d="M473.1,57.41c0,25.16-17.13,41.12-39.81,41.12-16.6,0-28.46-10.13-28.46-26.89,0-22.81,16.08-40.86,39.93-40.86C462.15,30.78,473.1,42.12,473.1,57.41ZM428.16,71.25c0,6.31,2.9,10.28,8.29,10.28,9.24,0,13.46-14.63,13.46-23.85,0-5.41-2.25-9.89-8.17-9.89C432.12,47.79,428.16,63.35,428.16,71.25Z"/><path d="M331.31,97.07s10.8-58.9,11.73-64.84a77.86,77.86,0,0,0,7.89.47c3.89,0,12.58-.4,12.58-.4l-1.36,9.82c6.19-8.16,13.84-11.34,22-11.34,11.85,0,16.74,7.39,16.74,17.67a80,80,0,0,1-1.06,11.07l-7.12,37.55H370.19s6.43-20.87,7.27-26.92,4.18-21.56-4.9-21.44c-5.41.08-14.7,5.63-16.31,19.44s-2.4,28.92-2.4,28.92Z"/><path d="M310.69,37.18,299.43,97.07H322l11.23-59a32.88,32.88,0,0,1-10.93,1.81A25.17,25.17,0,0,1,310.69,37.18Z"/><path d="M475.74,97.55a4.37,4.37,0,0,1-4.54-4.64,5.58,5.58,0,0,1,5.58-5.73,4.49,4.49,0,0,1,4.64,4.74,5.39,5.39,0,0,1-5.63,5.63Z"/></g><g id="roto"><path class="cls-1" d="M230.18,57.41c0,25.16-17.13,41.12-39.8,41.12-16.61,0-28.46-10.13-28.46-26.89,0-22.81,16.07-40.86,39.92-40.86C219.24,30.78,230.18,42.12,230.18,57.41ZM185.24,71.25c0,6.31,2.9,10.28,8.31,10.28,9.22,0,13.43-14.63,13.43-23.85,0-5.41-2.24-9.89-8.17-9.89C189.18,47.79,185.24,63.35,185.24,71.25Z"/><g class="cls-2"><path class="cls-1" d="M26.47,42.17s2-6.93,3.32-9.94c0,0-6.3.39-10.6.38s-8.79-.38-8.79-.38C9.76,37.64,0,97.07,0,97.07H22.54s-.69-7.65-.36-25.49,9.07-24.45,21.63-20.25l3.73,1.35A43.76,43.76,0,0,1,67.49,30.81l-12.12,0C46.41,30.78,31.21,33.73,26.47,42.17Z"/></g><path class="cls-1" d="M117.53,57.41c0,25.16-17.12,41.12-39.8,41.12-16.59,0-28.46-10.13-28.46-26.89,0-22.81,16.07-40.86,39.93-40.86C106.59,30.78,117.53,42.12,117.53,57.41ZM72.6,71.25c0,6.31,2.89,10.28,8.3,10.28,9.23,0,13.45-14.63,13.45-23.85,0-5.41-2.24-9.89-8.17-9.89C76.56,47.79,72.6,63.35,72.6,71.25Z"/><g class="cls-2"><path class="cls-1" d="M340.72,11.39c0,10.77-7.34,17.59-17,17.59-7.11,0-12.18-4.34-12.18-11.5C311.51,7.72,318.39,0,328.6,0,336,0,340.72,4.85,340.72,11.39Z"/></g><path class="cls-1" d="M153.63,32.23l3.85-20.37a31.67,31.67,0,0,1-10.55,1.73,24.8,24.8,0,0,1-11.2-2.53l-4,21.17H111a29.7,29.7,0,0,1,11,17h6.48L124,71.91a64.93,64.93,0,0,0-1.32,12c0,8.69,6.06,14.63,18.31,14.63,4.36,0,9.62-.53,12.4-1.57l2.9-17.67a36.4,36.4,0,0,1-5.28.27c-4.09,0-5.27-2.25-5.27-5.15a48.6,48.6,0,0,1,.94-7.24l3.68-17.93H162a43.53,43.53,0,0,1,15.52-17Z"/></g><g id="LNG_CURVES" data-name="LNG CURVES"><path d="M492.64,65.62a41.76,41.76,0,0,1,8.95-.86c2.81,0,6.23.33,8.8,1.95a8.12,8.12,0,0,1,4,7.28,11.11,11.11,0,0,1-4.57,9.33c-2.66,2-6.42,3-10.47,3a24.55,24.55,0,0,1-2.57-.19l-2.14,11h-7.9Zm5.28,13.89a12.94,12.94,0,0,0,2.43.19c3.57,0,5.85-2.33,5.85-5s-2-3.53-4.23-3.53a14.19,14.19,0,0,0-2.48.15Z"/><path d="M520.67,65h8.09l-4.71,25h12.09l-1.34,7.09H514.58Z"/></g></g></g></g></svg>