<svg xmlns="http://www.w3.org/2000/svg" viewBox="0 0 742.01 211.12"><defs><style>.cls-1{fill:#e20030;}.cls-2{fill:#fff;}</style></defs><g id="Warstwa_2" data-name="Warstwa 2"><g id="Layer_1" data-name="Layer 1"><rect class="cls-1" x="588.66" y="72.46" width="153.35" height="138.66"/><path class="cls-2" d="M610.31,191.5H603.5v7.62h6.81Zm-.4-11.28H603.5v7h6.41Zm3.3,23.24H595.08V175.88h16.76c3.79,0,6,.85,6,5.08v3.72c0,2.13-.35,4.56-3.81,5,3.26.27,4.66.93,4.66,5v3.56c0,3.31-1.57,5.27-5.48,5.27"/><rect class="cls-2" x="620.67" y="183.22" width="7.46" height="20.24"/><polygon class="cls-2" points="630.16 203.53 630.16 199.43 640.24 187.94 630.61 187.94 630.61 183.3 648.9 183.3 648.9 187.44 638.79 198.89 648.94 198.89 648.94 203.53 630.16 203.53"/><path class="cls-2" d="M663.69,203.46V187.84h-5.6v15.62h-7.38V188c0-3.16,1.62-4.76,5-4.76h10.4c3.7,0,5,1.72,5,4.76v15.47Z"/><path class="cls-2" d="M685.69,187.48h-5.28v4.69h5.28Zm-5.24,7.34v3.75h11.73v4.89h-14c-4.19,0-5.07-2.7-5.07-4.93V188.38c0-3.28,1.65-5.11,5-5.15,0,0,4-.08,5-.08s5,.08,5,.08c3.55,0,5,1.71,5,4.92v6.67Z"/><path class="cls-2" d="M708.3,203.46H694.85v-4.3H707.1v-3.59h-7.3c-4.39,0-4.95-1.92-4.95-6.1,0-3.63.68-6.24,5-6.24h12.49v4.29H701.9v3.6h6.49c4.39,0,4.91,2,4.91,5.89,0,4.14-.73,6.45-5,6.45"/><path class="cls-2" d="M730.54,203.46s-4.23.08-5.51.08c-1.09,0-4.72-.08-4.72-.08-3.63-.08-5.07-1.68-5.07-5.15V183.23h7.36v15.61h5.61V183.23h7.37v15.08c0,3.23-1.69,5.12-5,5.15"/><path class="cls-2" d="M643.25,161h-5.33v6.82h5.33Zm1.94,10.65H638v9h-7.28V157.15H645.3c3.23,0,4.53,1.3,4.53,4.33v5.62c0,2.76-1.34,4.53-4.64,4.53"/><path class="cls-2" d="M665,180.59s-3.79.06-4.94.06c-1,0-4.22-.06-4.22-.06-3.26-.08-4.55-1.51-4.55-4.62v-13.5h6.6v14h5v-14h6.6V176c0,2.9-1.52,4.59-4.51,4.62"/><polygon class="cls-2" points="678.06 157.1 671.5 157.1 671.49 180.59 678.06 180.58 678.06 157.1"/><path class="cls-2" d="M691.59,180.59h-12v-3.86h11v-3.2H684c-3.94,0-4.44-1.72-4.44-5.46,0-3.26.61-5.6,4.48-5.6h11.18v3.85h-9.35v3.22h5.81c3.93,0,4.4,1.81,4.4,5.27,0,3.72-.64,5.78-4.48,5.78"/><path d="M228.68,104.29a31,31,0,0,1,30.49-31.17,31.67,31.67,0,0,1,15.12,3.31l3.56-3.82h.85V91.38h-1c-4.16-11-11.21-16.65-19.45-16.65-9.85,0-20.12,7.39-20.12,29.39s11,29.47,20.89,29.47c5.52,0,9.85-1.44,12.65-4V114.91c0-3.66-2-6.37-9.59-6.63v-1.1h24.46v1.1c-5.69.34-6.8,1.87-6.8,6.63v14.94c-5.94,3.83-14.18,5.35-20,5.35C244.39,135.2,228.68,124.76,228.68,104.29Z"/><path d="M300.45,118.05c-4.08,10.61-2.72,13.33,5,14.61v1.1h-19.7v-1.1c5.52-1.53,8.4-4.51,12.23-14L316.33,72.7h1.87l18.85,51.12c2.38,6.37,3.66,8,10.28,8.84v1.1h-25.9v-1.1c8.07-.34,9.09-2.21,7.3-7.22L323.64,111H303.17Zm13.67-34.31h-.34l-9.93,25.56H323Z"/><path d="M348.19,132.91l37.19-56.65H368.82c-5.94,0-10.87,4.25-17.32,15.63l-1.11-.17,1.7-17.16h43.57l.09.85-37.2,56.65h19.19c6.8,0,10.11-4.33,17.24-16.31l1.11.17-1.36,17.84H348.27Z"/><path d="M402.2,132.66c7.56-.26,9.6-2.38,9.6-6.12V81.7c0-3.65-2-5.86-9.6-6.12v-1h48.07l.26,18.35-1.1.08c-4.17-11.12-8.5-16.73-18.35-16.73H419.87v25.91h5.35c7.13,0,10.7-2.38,13-11.72h1.11v25.14h-1.11c-2.29-9.35-5.86-11.73-13-11.73h-5.35v28.2h11.21c11.55,0,16.48-5.86,21-17.75l1.1.09-.42,19.36H402.2Z"/><path d="M460.13,132.66c7.56-.26,9.6-2.38,9.6-6.12V81.7c0-3.65-2-5.86-9.6-6.12v-1h26.58v1c-8.06.26-8.91,2.3-8.91,6.12v50.36h7.81c11.21,0,16.56-3.65,21.49-16.9l1.1.09-.85,18.51H460.13Z"/><path d="M512.2,132.66c7.55-.26,9.59-2.38,9.59-6.12V81.7c0-3.65-2-5.86-9.59-6.12v-1h48.07l.25,18.35-1.1.08c-4.16-11.12-8.5-16.73-18.35-16.73H529.86v25.91h5.35c7.14,0,10.7-2.38,13-11.72h1.1v25.14h-1.1c-2.3-9.35-5.86-11.73-13-11.73h-5.35v28.2h11.21c11.55,0,16.48-5.86,21-17.75l1.1.09-.42,19.36H512.2Z"/><path d="M185.1,207.91c7.56-.26,9.6-2.38,9.6-6.12V157c0-3.65-2-5.86-9.6-6.12v-1h25.23c17.15,0,22.84,6.71,22.84,14.26,0,6.12-4.58,12.49-16.47,13.42v.26c12.57.68,19,5.77,19,14.27,0,8.32-6.2,17-24.63,17h-26Zm26.25-31.09c9.59,0,13.08-4.41,13.08-12.48,0-7.31-2.64-12.83-13.42-12.83h-8.24v25.31Zm1,30.49c10.78,0,14.44-4.24,14.44-15,0-7.9-4.51-13.76-15.12-13.76h-8.92v28.79Z"/><path d="M242.44,207.91c8.06-.26,9.85-2.38,9.85-6.12V157c0-3.65-1.79-5.86-9.85-6.12v-1h27.68v1c-8.06.26-9.85,2.47-9.85,6.12v44.84c0,3.74,1.79,5.86,9.85,6.12V209H242.44Z"/><path d="M276.75,208.16,314,151.51H297.39c-5.95,0-10.87,4.25-17.33,15.63L279,167l1.7-17.15h43.57l.08.84-37.2,56.65h19.2c6.79,0,10.1-4.33,17.24-16.3l1.1.17L323.29,209H276.84Z"/><path d="M343.17,158.48h-.09V195c0,8.24,1.79,11.63,10.45,12.91V209H330.77v-1.1c8-1.36,10.28-4.67,10.28-12.91V160.52c0-5.18-3-9.52-10.28-9.69v-1h16.56l34.48,46.54h.09V163.74c0-8.23-2.64-11.63-11.13-12.91v-1h22.85v1c-8,1.45-9.68,4.68-9.68,12.91v46.72h-1.87Z"/><path d="M397.44,207.91c7.56-.26,9.6-2.38,9.6-6.12V157c0-3.65-2-5.86-9.6-6.12v-1h48.07l.26,18.34-1.1.09c-4.17-11.13-8.5-16.74-18.35-16.74H415.11v25.91h5.35c7.13,0,10.7-2.38,13-11.72h1.1v25.14h-1.1c-2.3-9.35-5.87-11.72-13-11.72h-5.35v28.19h11.21c11.55,0,16.48-5.86,21-17.75l1.1.09L448,209H397.44Z"/><path d="M457.24,189.65h1.19C463,200.43,468.37,208.5,478,208.5c8.92,0,13.17-6,13.17-11.29,0-8.07-5.18-10.79-16-14.61-8.07-2.89-16.73-5.18-16.73-16.14,0-11.12,8.66-17.83,19.7-17.83a32.1,32.1,0,0,1,12.49,2.54l2.71-3h1v18.6h-1.19c-4-10.79-9.34-16.48-16.47-16.48-6,0-11.38,3.91-11.38,10.87,0,7.73,5.6,10.28,15.2,13.51,8.15,2.71,16.56,5.43,16.56,16.47,0,8.83-5.18,19.11-20,19.11a30.24,30.24,0,0,1-13.59-3.65l-5.26,4h-1Z"/><path d="M512.53,192.88V157c0-3.65-2-5.86-9.6-6.12v-1h26.59v1c-8,.26-8.92,2.3-8.92,6.12v33.63c0,13.25,8.49,17.07,18.09,17.07,4.33,0,8.24-1.27,11-4,3-3,4.75-7.22,4.75-13.5V163.74c0-8.23-2.63-11.63-11.21-12.91v-1H566v1c-8,1.45-9.6,4.68-9.6,12.91v27.35c0,11.3-6.79,19.37-21.66,19.37C520.77,210.46,512.53,204.09,512.53,192.88Z"/><path d="M157.82,111.65a17.77,17.77,0,0,1-4.52,4.3,35.73,35.73,0,0,1-5.77,3.17,34.49,34.49,0,0,1-5.15,1.81,69.13,69.13,0,0,1-8.77,1.73c-2.92.4-5.25.61-5.25.62l-4.63.39-8.61.65c-3.77.31-6.9.7-8.47,1a19.84,19.84,0,0,0-7.12,2.41A9.29,9.29,0,0,0,96.92,130a5.44,5.44,0,0,0-1.19,3.36,5.17,5.17,0,0,1,2.23-2.2,11.78,11.78,0,0,1,2.66-1c1.87-.48,3.93-.81,6.62-1.25,1.47-.24,4.46-.61,8.18-.91l8.6-.66,4.7-.42s2.37-.21,5.4-.61a71.77,71.77,0,0,0,9.25-1.83,37.78,37.78,0,0,0,5.67-2,16.21,16.21,0,0,0,6.12-4.57A12.54,12.54,0,0,0,157.82,111.65Z"/><path d="M166.59,124.87a10.86,10.86,0,0,0,4.2,1.65,5.35,5.35,0,0,0,2.6-.24,12.55,12.55,0,0,0,2.46-1.35,8.84,8.84,0,0,0,1.34-1.18,9,9,0,0,0,1.54-2.07,10.14,10.14,0,0,0,.89-2.26,12.72,12.72,0,0,0,.3-1.33,25,25,0,0,0,.37-3.25c.13-2.56.16-4.58.22-5.6s.06-1.74.07-2.52v-.6a4.18,4.18,0,0,0-.07-.72,3.25,3.25,0,0,0-.27-.82,2,2,0,0,0-.58-.7,2,2,0,0,0-1.58-.34,4.14,4.14,0,0,0-1.14.4,12.25,12.25,0,0,0-1.93,1.29,19.8,19.8,0,0,1,2.21-.29,3.64,3.64,0,0,1,.9,0c.25.06.28.14.34.25a.26.26,0,0,1,0,.15.92.92,0,0,0,0,.23c0,.12,0,.27,0,.38l-.09.55a25.51,25.51,0,0,0-.26,2.58l-.23,5.56a26.45,26.45,0,0,1-.32,3,9.38,9.38,0,0,1-.26,1.11,8.87,8.87,0,0,1-.68,1.75,6.79,6.79,0,0,1-1.15,1.54,6,6,0,0,1-1,.89c-.66.5-1.38.92-1.93,1.26a5,5,0,0,1-1.69.52A18.84,18.84,0,0,1,166.59,124.87Z"/><path d="M167,125.18a40.46,40.46,0,0,1-2.3,3.79c-.2.31-.57.86-1.08,1.53l-.16.22-.09.11-.08.1c-.76,1-1.43,1.7-1.77,2.07a35.89,35.89,0,0,0-2.84,3.51,10.64,10.64,0,0,0,3.73-2.68c.36-.38,1.06-1.14,1.85-2.14l.08-.1.09-.12.18-.23c.52-.69.91-1.27,1.12-1.61A7.21,7.21,0,0,0,167,125.18Z"/><path d="M0,208.79a14.3,14.3,0,0,0,3.42-.57,19.42,19.42,0,0,0,3.06-1.15,18.17,18.17,0,0,0,3-1.79,21.75,21.75,0,0,0,3-2.69c.81-.84,2.23-2.32,4-4.2,2.93-3.17,6.39-7.1,9.86-11.25s6.93-8.53,10.18-12.28a69.64,69.64,0,0,1,12.92-11.8s1.33-1,3.67-2.36a37.78,37.78,0,0,1,4.22-2.19,20.76,20.76,0,0,1,2.59-1c1-.29,2-.57,3.08-.86,4.29-1.15,9.35-2.33,14.12-4.64a33.78,33.78,0,0,0,6.64-4.21,32.36,32.36,0,0,0,5.13-5.31,40.33,40.33,0,0,0,4.52-7.48c1.28-2.71,1.8-4.63,2.74-6.21a11.8,11.8,0,0,1,4.29-4.3A10,10,0,0,0,94,127.12,12.54,12.54,0,0,0,91.8,130c-.63,1.09-1.13,2.21-1.74,3.42a39.07,39.07,0,0,1-4.14,6.83,28.69,28.69,0,0,1-10.46,8.45c-4.29,2.09-9.1,3.24-13.46,4.41-1.09.29-2.16.58-3.18.89a24,24,0,0,0-3,1.11,44,44,0,0,0-4.63,2.4c-2.5,1.49-3.88,2.54-3.89,2.53s-1.7,1.13-4.27,3.23a74.93,74.93,0,0,0-9.33,9.15c-3.35,3.86-6.79,8.23-10.24,12.33s-6.85,8-9.74,11.11l-3.9,4.17c-1,1-1.72,1.86-2.52,2.63S5.75,204.14,5,204.82s-1.5,1.35-2.3,2A19.56,19.56,0,0,1,0,208.79Z"/><path d="M57.78,118a10.67,10.67,0,0,1-.42,3.26c-.24,1-.51,2-.79,3-.57,2-1.14,4-2,6.53a34.09,34.09,0,0,1-2.15,5c-.3.54-.62,1.09-1,1.65l-.56.85-.3.43c-.18.23,0,0-.15.18a23.46,23.46,0,0,1-3.5,2.68A73.28,73.28,0,0,1,38.64,146L36.41,147l-.95.47c-.1,0-.09.13-.13.21l-.08.24-.15.49-.39,1.29-1,3.33-.93,3a74.23,74.23,0,0,1-3.42,8.67c-.57,1.19-1.22,2.41-1.94,3.65l-2.26,4a59.31,59.31,0,0,1-4.67,7.12,79.28,79.28,0,0,1-5.34,6.18c-1,1-1.8,1.91-2.56,2.77l-2.08,2.41A24.6,24.6,0,0,1,5.79,195a14.88,14.88,0,0,0,6.42-2.11,14.4,14.4,0,0,0,1.42-1c.44-.34.88-.69,1.33-1.08a37.44,37.44,0,0,0,2.84-2.67,76.67,76.67,0,0,0,5.63-6.47,63.43,63.43,0,0,0,4.94-7.54l2.23-3.92c.78-1.33,1.48-2.66,2.09-3.93a80.36,80.36,0,0,0,3.58-9.11l1-3.06,1-3.34c.28-.9.17-.57.21-.64l1.79-.84A79.58,79.58,0,0,0,49,144.56,27.87,27.87,0,0,0,53,141.43c0-.05.23-.21.34-.34l.24-.34.34-.49c.23-.32.44-.64.65-1,.4-.65.77-1.28,1.1-1.89a34,34,0,0,0,2.38-5.56,22.33,22.33,0,0,0,1.17-7.35,19.08,19.08,0,0,0-.33-3.27,15.18,15.18,0,0,0-.4-1.65A5.52,5.52,0,0,0,57.78,118Z"/><path d="M183.19,41.88a33.5,33.5,0,0,0-5.94,2.91,42.89,42.89,0,0,0-5.74,4.3L169,51.27l-1.75,1.52L163,56.4c-3,2.53-6.34,5.26-9.91,7.73L150.36,66c-.9.59-1.82,1.14-2.76,1.63a26.37,26.37,0,0,1-5.91,2.22c-2.05.51-4.22.77-6.47,1.28a22.73,22.73,0,0,0-3.32,1,16,16,0,0,0-1.57.71l-.75.39-.66.37-9.62,5.14c-5.58,3-9.14,5-9.14,5l-2.47,1.4c-1.57.91-3.79,2.17-6.57,3.66C95.59,91.81,88,95.72,80,99.71l-6,3c-2,1-4.09,1.86-6.11,2.79l-6,2.73-5.57,2.6c-3.38,1.6-6.14,3-7.51,3.7a34,34,0,0,0-3.4,2,22.64,22.64,0,0,0-2.65,2.16,35.28,35.28,0,0,0-4.39,4.95c2.19-1,4-1.8,5.92-2.73l2.85-1.45,3.35-1.67c1.34-.68,4.06-2,7.42-3.62l5.53-2.58,6-2.72c2-.93,4.07-1.81,6.17-2.82l6.11-3c8-4,15.66-7.94,21.24-11,2.79-1.5,5.09-2.8,6.65-3.71L112,87s3.53-2,9.08-5l9.65-5.15.68-.37.61-.33c.42-.21.84-.4,1.28-.57a18.15,18.15,0,0,1,2.79-.85c2-.46,4.21-.72,6.51-1.29a29.34,29.34,0,0,0,6.74-2.53c1.07-.56,2.09-1.16,3.08-1.81l2.83-1.89c3.77-2.6,7.14-5.38,10.2-8l4.25-3.63,1.76-1.54,2.5-2.19a56,56,0,0,0,5.06-5C180.39,45.29,181.58,43.69,183.19,41.88Z"/><path d="M164.06,23.38a16.92,16.92,0,0,0,3.84,8.42,32.3,32.3,0,0,0,2.72,2.9l.27.25.14.13.14.13a29.17,29.17,0,0,0,4.62,3.44,15.53,15.53,0,0,0,4.56,1.9,17.11,17.11,0,0,0,4.43.41c-1.45-.72-2.59-1.4-3.77-2.08s-2.41-1.38-3.95-2.32a28.51,28.51,0,0,1-4.24-3.18l-.13-.12-.14-.11-.24-.24a31.6,31.6,0,0,1-2.53-2.68l-3-3.53C165.93,25.65,165,24.67,164.06,23.38Z"/><path d="M187.74,38.85a8.27,8.27,0,0,0-1.55-1.67l-5-4.14c-2.38-2-4.45-3.9-4.47-3.9a34.22,34.22,0,0,0-4.85-3.48,21.57,21.57,0,0,0-4.18-1.93c-.6-.2-1.11-.32-1.36-.38a4.72,4.72,0,0,0-2.31,0c.79.22,1.28.37,2.17.57a12.45,12.45,0,0,1,1.31.36,21.52,21.52,0,0,1,4.06,1.88,31.61,31.61,0,0,1,4.76,3.42s2.09,1.9,4.47,3.9l5,4.14A8.52,8.52,0,0,0,187.74,38.85Z"/><path d="M208.63,63.56a8.1,8.1,0,0,0,3.52.25,5.82,5.82,0,0,0,3.32-1.68,9.57,9.57,0,0,0,1.15-1.49,6.29,6.29,0,0,0,.85-2,4.51,4.51,0,0,0,.09-1.57,2.73,2.73,0,0,0-.8-1.57c-.21-.24-.28-.32-.43-.47l-.38-.39c-.26-.25-.53-.49-.8-.73-.9-.81-2.5-2.13-4.53-3.71l-.63-.49-1.8-2.7-2.09-3.19c-1.39-2.16-2.82-4.39-3.93-6.35a10.28,10.28,0,0,1-.59-1.2c-.18-.58-.38-1.13-.59-1.64a22.78,22.78,0,0,0-1.26-2.6c-.8-1.4-1.37-2.17-1.36-2.18a45.44,45.44,0,0,0-5.28-6.26c-3.23-3.3-7.58-6.92-11-9.73-2.91-2.39-5.24-4.35-6.39-5.35-2.1-1.82-3.78-3.17-5.41-4.43s-3.22-2.42-5-4.09a22,22,0,0,0,3,5.94,30.92,30.92,0,0,0,4.95,5.35c1.16,1,3.54,3.05,6.44,5.43,3.4,2.81,7.66,6.36,10.72,9.47a40.91,40.91,0,0,1,4.87,5.75s.5.7,1.19,1.9A20.67,20.67,0,0,1,197.58,36a13.93,13.93,0,0,1,.48,1.34,10.21,10.21,0,0,0,.89,1.89c1.21,2.17,2.63,4.38,4.05,6.59l2.1,3.21,2.11,3.15c.11.16.3.24.44.37l.27.21.43.33c2,1.55,3.54,2.83,4.38,3.56l.73.64.57.53a.07.07,0,0,1,.06,0s0,0,0,.19a7.41,7.41,0,0,1-.79,2.43C212.68,61.86,211,63.05,208.63,63.56Z"/><path d="M191.56,55.56a1.21,1.21,0,0,0,0,1.14,2.87,2.87,0,0,0,.81,1,7.85,7.85,0,0,0,.81.58A19.11,19.11,0,0,0,196.92,60a22.35,22.35,0,0,0,3.62.92c.63.1,1.15.15,1.42.17a4.86,4.86,0,0,0,2.27-.34c-.8-.11-1.31-.21-2.23-.27-.25,0-.75-.07-1.36-.17a22.2,22.2,0,0,1-3.53-.89,18.61,18.61,0,0,1-3.58-1.67,8.64,8.64,0,0,1-.75-.53,7.1,7.1,0,0,1-.82-.75A1.17,1.17,0,0,1,191.56,55.56Z"/><path d="M167.7,90.14a9.6,9.6,0,0,0,4.23-3.84c.61-1,2.42-4.21,4.14-7.08s3.35-5.43,3.35-5.43,1.62-2.56,3.51-5.28,4.1-5.54,4.87-6.4a10,10,0,0,0,1.51-2.29c.37-.75.6-1.56,1.12-2.54a6.78,6.78,0,0,0-3,.57A7.21,7.21,0,0,0,185,59.69a72.37,72.37,0,0,0-5.14,6.71c-1.94,2.81-3.58,5.42-3.58,5.42s-1.67,2.6-3.41,5.5-3.59,6.1-4.18,7.17A9.09,9.09,0,0,0,167.7,90.14Z"/><path d="M170.19,145.51a5.59,5.59,0,0,0,2.29.1l.56-.09.39-.08.75-.16q.44-.1.87-.24a18.52,18.52,0,0,0,1.76-.62,16.27,16.27,0,0,0,3.45-2c1.11-.78,2.23-1.63,3.33-2.52s2.19-1.83,3.27-2.78l1.6-1.43.8-.72a5.41,5.41,0,0,0,.73-.88,14.81,14.81,0,0,0,2.22-7.94,15.43,15.43,0,0,0-.45-3.7c-.23-1.12-.36-2.2-.48-3.19-.45-4-.59-6.54-.6-6.54s-.2-2.57-.43-6.56l-.35-6.91-.08-2,0-1V96a1.66,1.66,0,0,0-.05-.31l-.15-.51a10,10,0,0,0-2.15-3.72,7.86,7.86,0,0,0-3.79-2.25,10.7,10.7,0,0,0-4.36-.1c-1.39.2-2.77.36-4.11.48l-2,.16-1,.06-.88,0-1.37,0a12.84,12.84,0,0,0-2.26.24,6.37,6.37,0,0,0,2.26.38l1.39,0,.89,0,1,0,2-.16c1.36-.13,2.74-.29,4.14-.49a10.07,10.07,0,0,1,4.13.09A7.21,7.21,0,0,1,187,91.91a9.42,9.42,0,0,1,2,3.49c.05.16.1.31.14.47a1.3,1.3,0,0,1,0,.19v.25l0,1,.08,2,.35,6.91c.23,4,.43,6.58.43,6.58s.15,2.58.6,6.57c.12,1,.25,2.08.49,3.23a15.33,15.33,0,0,1,.44,3.58,14.28,14.28,0,0,1-2.12,7.6,4.36,4.36,0,0,1-.64.77l-.79.71-1.6,1.43c-1.07,1-2.16,1.88-3.25,2.76s-2.2,1.72-3.29,2.5a16,16,0,0,1-3.33,1.93,14.51,14.51,0,0,1-1.71.6c-.28.09-.56.16-.84.23l-.72.16-.38.07-.54.09A15.84,15.84,0,0,0,170.19,145.51Z"/><path d="M167.6,145.4a11,11,0,0,0,3.66-2.79c.26-.3.71-.82,1.24-1.52a0,0,0,0,0,0,0h0l0,0a24.75,24.75,0,0,0,1.56-2.37,8.5,8.5,0,0,0,1.26-4.44c-.79,1.4-1.41,2.23-2.31,3.82a23.47,23.47,0,0,1-1.5,2.25l0,0v0l0,0c-.5.67-.93,1.17-1.17,1.46A34,34,0,0,0,167.6,145.4Z"/><path d="M136.06,111.05a26.35,26.35,0,0,0,9.05,1.47c.78,0,2.15,0,3.87-.1a47.11,47.11,0,0,0,9.62-1.27,28.11,28.11,0,0,0,5-2.06c1.55-.77,3-1.57,4.45-2.31,2.82-1.49,5.35-2.74,7.19-3.47a16.5,16.5,0,0,1,2.94-.93s.24,0,.64-.1a2.52,2.52,0,0,1,1.32.13.72.72,0,0,1,.32.44c0,.09.11.43.16.68l.18.84c.24,1.16.48,2.47.73,3.86,1,5.58,2.08,12.6,2.64,18.1a23.75,23.75,0,0,1,.16,3.13,1.24,1.24,0,0,1,0,.18l-.06.24a4.29,4.29,0,0,1-.16.43,3.49,3.49,0,0,1-.34.65,5.19,5.19,0,0,1-3,2.16,11.91,11.91,0,0,1-4.11.37,8.44,8.44,0,0,0,4.34,1.41,5.67,5.67,0,0,0,4.84-2.6,6.4,6.4,0,0,0,.55-1,5.86,5.86,0,0,0,.26-.71c0-.13.07-.26.1-.4s.06-.37.08-.51a24.34,24.34,0,0,0-.17-3.56c-.57-5.64-1.67-12.65-2.67-18.29-.25-1.41-.5-2.73-.75-3.92L183,103a9.33,9.33,0,0,0-.23-.91,3.11,3.11,0,0,0-1.45-1.81,3.91,3.91,0,0,0-1.67-.47,7.49,7.49,0,0,0-1.11,0c-.57.07-.85.14-.86.14a17.72,17.72,0,0,0-3.37,1c-2,.79-4.58,2.08-7.42,3.57-1.42.74-2.9,1.53-4.41,2.29a26,26,0,0,1-4.54,1.88,44.71,44.71,0,0,1-9.07,1.19c-1.67.08-3,.1-3.78.11A45.49,45.49,0,0,0,136.06,111.05Z"/><path d="M162.19,24.86a18.47,18.47,0,0,0,.6,4.39,15.34,15.34,0,0,0,2.06,4.5,23.76,23.76,0,0,0,2.48,3.17l.06,0,0,0,.05,0a23.52,23.52,0,0,0,4.51,3.7,15.12,15.12,0,0,0,4.54,2,18.28,18.28,0,0,0,4.41.49c-1.42-.77-2.56-1.46-3.74-2.15s-2.4-1.4-3.9-2.36a21.63,21.63,0,0,1-4-3.34c-.06-.06,0,0-.05,0l0,0,0-.06a21.11,21.11,0,0,1-2.25-2.84c-1-1.48-1.72-2.69-2.45-3.85S163,26.26,162.19,24.86Z"/><path d="M160.62,3.44a23.27,23.27,0,0,0,2,6.39,19.71,19.71,0,0,0,4.55,6,40.73,40.73,0,0,0,4.74,3.67c.75.53,2.15,1.41,2.15,1.41L176,22.13A40.83,40.83,0,0,1,182.35,27a63.88,63.88,0,0,1,4.57,4.92c1.3,1.55,2.56,3.08,4,5.07a23.19,23.19,0,0,0-1.68-6.48,19,19,0,0,0-4.32-6.16A43.27,43.27,0,0,0,178,19L176,17.79,174,16.41a38.38,38.38,0,0,1-4.35-3.33c-2-1.78-3.39-3.28-4.78-4.76S162.12,5.36,160.62,3.44Z"/></g></g></svg>